<?xml version="1.0" encoding="UTF-8" standalone="no"?>
<!-- Created with Inkscape (http://www.inkscape.org/) -->

<svg
   width="111.37009mm"
   height="87.549675mm"
   viewBox="0 0 111.37009 87.549675"
   version="1.1"
   id="svg789"
   inkscape:version="1.2 (dc2aeda, 2022-05-15)"
   sodipodi:docname="logo.svg"
   xmlns:inkscape="http://www.inkscape.org/namespaces/inkscape"
   xmlns:sodipodi="http://sodipodi.sourceforge.net/DTD/sodipodi-0.dtd"
   xmlns="http://www.w3.org/2000/svg"
   xmlns:svg="http://www.w3.org/2000/svg">
  <sodipodi:namedview
     id="namedview791"
     pagecolor="#505050"
     bordercolor="#eeeeee"
     borderopacity="1"
     inkscape:showpageshadow="0"
     inkscape:pageopacity="0"
     inkscape:pagecheckerboard="0"
     inkscape:deskcolor="#505050"
     inkscape:document-units="mm"
     showgrid="false"
     inkscape:zoom="1.4385167"
     inkscape:cx="234.26909"
     inkscape:cy="165.4482"
     inkscape:window-width="1411"
     inkscape:window-height="670"
     inkscape:window-x="0"
     inkscape:window-y="25"
     inkscape:window-maximized="0"
     inkscape:current-layer="layer1" />
  <defs
     id="defs786">
    <rect
       x="118.16443"
       y="493.06796"
       width="501.66174"
       height="262.1102"
       id="rect18425" />
  </defs>
  <g
     inkscape:label="Layer 1"
     inkscape:groupmode="layer"
     id="layer1"
     transform="translate(-51.285294,-83.331094)">
    <path
       style="fill:none;stroke:#ffffff;stroke-width:1;stroke-dasharray:none"
       d="m 148.24725,95.583532 c -1.65483,-2.81695 -3.01728,-5.24905 -3.02768,-5.40468 -0.0207,-0.30332 3.67889,-2.9621 3.8824,-2.79043 0.13428,0.11319 5.30269,10.83733 5.3197,11.03792 0.01,0.11078 -2.91305,2.257488 -3.09408,2.272848 -0.0394,0.003 -1.42556,-2.298688 -3.08034,-5.115658 z"
       id="path628" />
    <path
       style="fill:none;stroke:#ffffff;stroke-width:1;stroke-dasharray:none"
       d="m 153.40138,105.41419 c -0.52445,-0.47118 -0.72182,-0.91966 -0.79758,-1.81283 -0.0855,-1.00726 0.0196,-1.31413 0.69498,-2.02909 1.61642,-1.711198 3.70413,-0.89015 3.91019,1.53778 0.0852,1.00389 -0.0206,1.37231 -0.57489,2.00153 -0.91604,1.03989 -2.27089,1.16673 -3.2327,0.30264 z"
       id="path626" />
    <path
       style="fill:none;stroke:#ffffff;stroke-width:1;stroke-dasharray:none"
       d="m 153.16696,92.034182 c -1.65482,-2.81696 -3.01727,-5.24907 -3.02767,-5.40469 -0.0207,-0.30331 3.6789,-2.96209 3.88241,-2.79044 0.13427,0.11319 5.30268,10.83735 5.3197,11.03795 0.009,0.11069 -2.91306,2.25748 -3.09409,2.27284 -0.0394,0.003 -1.42555,-2.29869 -3.08034,-5.11565 z"
       id="path628-1" />
    <path
       style="fill:none;stroke:#ffffff;stroke-width:1;stroke-dasharray:none"
       d="m 158.32111,101.86484 c -0.52447,-0.47119 -0.72183,-0.91968 -0.79758,-1.81285 -0.0855,-1.007258 0.0196,-1.314118 0.69496,-2.029078 1.61643,-1.7112 3.70415,-0.89015 3.9102,1.53778 0.0852,1.003878 -0.0206,1.372308 -0.5749,2.001528 -0.91604,1.0399 -2.27087,1.16674 -3.23268,0.30265 z"
       id="path626-4" />
    <path
       style="fill:none;stroke:#ffffff;stroke-width:1;stroke-dasharray:none"
       d="m 143.49897,113.95033 c -0.0961,-0.24953 -0.43687,-2.58229 -0.75724,-5.18389 l -0.58246,-4.73019 -3.68671,-3.15122 c -2.0277,-1.733168 -3.69486,-3.264548 -3.70484,-3.403068 -0.0162,-0.22611 3.44779,-2.80304 3.80924,-2.83372 0.0817,-0.007 0.82972,0.67498 1.66227,1.51535 l 1.51373,1.52794 -0.35729,-1.69247 c -0.63973,-3.03053 -0.69177,-2.85208 1.24508,-4.2682 0.96258,-0.70378 1.87185,-1.25359 2.02059,-1.22183 0.1558,0.0333 0.57067,2.24656 0.97871,5.22139 l 0.70827,5.163638 3.71442,3.14622 3.71442,3.14621 -0.55586,0.50171 c -0.30571,0.27594 -1.18911,0.91388 -1.96313,1.41762 l -1.40695,0.91642 -1.57417,-1.45961 -1.57418,-1.45962 0.22952,1.04266 c 0.12624,0.57347 0.34867,1.58023 0.49429,2.23725 l 0.26476,1.19459 -1.83826,1.3008 c -1.01106,0.71542 -1.91495,1.35152 -2.00871,1.41348 -0.094,0.0616 -0.24912,-0.0915 -0.34521,-0.3411 z"
       id="path624" />
    <path
       style="fill:none;stroke:#ffffff;stroke-width:1;stroke-dasharray:none"
       d="m 132.2599,121.91949 c -0.004,-0.0523 -1.25369,-4.21279 -2.7761,-9.24532 -1.52241,-5.03253 -2.78024,-9.29411 -2.7952,-9.47018 -0.0149,-0.17607 0.96024,-1.00522 2.16708,-1.84258 1.68942,-1.1722 2.26931,-1.455428 2.52064,-1.23108 0.42679,0.38093 11.92837,14.26261 11.94106,14.41209 0.005,0.063 -0.90742,0.75259 -2.02837,1.53244 -2.18283,1.51886 -2.0715,1.51665 -3.03142,0.0545 -0.24945,-0.38064 -0.51274,-0.68671 -0.58437,-0.68064 -0.0717,0.006 -0.58639,0.35624 -1.14415,0.77768 -0.61864,0.46813 -0.94792,0.90259 -0.84504,1.11501 0.0927,0.19143 0.28079,0.75329 0.41795,1.24863 0.24617,0.88913 0.22736,0.91631 -1.47821,2.1358 -1.5207,1.08724 -2.33808,1.49986 -2.36409,1.19326 z"
       id="path620" />
    <path
       style="fill:none;stroke:#ffffff;stroke-width:0.5;stroke-dasharray:none"
       d="m 135.14603,112.12311 c -0.0217,-0.25562 -2.82555,-4.19502 -2.91225,-4.09214 -0.0522,0.0619 1.41461,4.00214 1.76755,4.74819 0.12401,0.2621 0.25137,0.25175 0.65866,-0.0539 0.27775,-0.20793 0.49644,-0.47911 0.48596,-0.6025 z"
       id="path622" />
    <path
       style="fill:none;stroke:#ffffff;stroke-width:1;stroke-dasharray:none"
       d="m 120.41697,129.88585 c -0.15889,-0.32372 -2.14958,-4.0724 -4.42382,-8.3303 -2.27425,-4.25792 -4.14405,-7.86319 -4.1551,-8.01172 -0.0317,-0.4206 3.70927,-2.89014 4.09194,-2.7014 0.18533,0.0914 0.9549,0.57239 1.71013,1.06888 0.75522,0.49648 1.43646,0.8276 1.51388,0.73583 0.0774,-0.0918 0.12192,-1.14033 0.0989,-2.33013 l -0.0418,-2.16328 1.85068,-1.31244 c 1.01787,-0.72184 1.94834,-1.22384 2.06773,-1.11554 0.11934,0.10833 2.1626,3.85549 4.54054,8.32709 2.76897,5.20701 4.25561,8.26115 4.13469,8.49441 -0.10384,0.20031 -0.99681,0.90571 -1.98439,1.56752 l -1.79539,1.20356 -2.58856,-4.89693 c -1.4237,-2.69331 -2.70725,-5.00036 -2.85232,-5.1268 -0.16224,-0.14135 -0.23517,0.12039 -0.18948,0.67991 0.0404,0.50042 0.0386,1.35974 -0.005,1.9097 l -0.0793,0.9999 -1.37727,-0.84168 c -0.75748,-0.46293 -1.41798,-0.79341 -1.46775,-0.73442 -0.0497,0.059 1.12405,2.389 2.60847,5.17774 l 2.69895,5.07044 -0.5685,0.45631 c -0.3127,0.25097 -1.22768,0.90767 -2.03333,1.45933 l -1.46476,1.00308 z"
       id="path618" />
    <path
       style="fill:none;stroke:#ffffff;stroke-width:1;stroke-dasharray:none"
       d="m 111.12524,135.40047 c -1.60886,-0.44152 -2.25316,-1.14564 -4.08035,-4.45918 -3.08702,-5.5982 -3.47951,-6.48357 -3.62619,-8.17994 -0.2395,-2.77492 1.4418,-5.36429 4.22773,-6.50954 1.14931,-0.47245 1.51566,-0.51715 2.57847,-0.31456 1.94335,0.37039 2.83643,1.4276 5.58089,6.60658 2.82103,5.32347 3.08445,6.42803 2.11553,8.87058 -1.11842,2.81946 -4.28322,4.67571 -6.79607,3.98611 z"
       id="path614" />
    <path
       style="fill:none;stroke:#ffffff;stroke-width:1;stroke-dasharray:none"
       d="m 95.278311,136.94018 c -2.35911,-4.4367 -4.33815,-8.23512 -4.39789,-8.44096 -0.0667,-0.22995 0.66317,-0.93137 1.89305,-1.81921 1.10092,-0.7947 2.08434,-1.45238 2.18533,-1.46156 0.10101,-0.009 1.47644,1.41402 3.0565,3.1626 1.58005,1.74858 2.905069,3.14436 2.944479,3.10173 0.0394,-0.0427 -0.78473,-1.66244 -1.831399,-3.59954 -1.04668,-1.93712 -1.91675,-3.7001 -1.9335,-3.91774 -0.036,-0.4678 3.494749,-3.01968 3.810009,-2.75374 0.31972,0.2697 8.74557,16.21487 8.77826,16.61206 0.0263,0.31919 -4.15311,3.40401 -4.33705,3.2012 -0.047,-0.0519 -1.31354,-1.45398 -2.81432,-3.11567 -1.50076,-1.66167 -2.768839,-3.01782 -2.817949,-3.01365 -0.11735,0.01 0.16405,0.57194 2.083649,4.16166 0.88443,1.6539 1.61678,3.10998 1.62746,3.23573 0.0212,0.24919 -3.29196,2.65734 -3.704039,2.6923 -0.13933,0.0118 -2.18349,-3.60853 -4.54259,-8.04521 z"
       id="path612" />
    <path
       style="fill:none;stroke:#ffffff;stroke-width:1;stroke-dasharray:none"
       d="m 85.445411,143.52917 -4.50178,-8.44727 0.56957,-0.45709 c 0.31326,-0.25141 1.22189,-0.90388 2.01924,-1.44986 l 1.44968,-0.99273 0.58822,1.08532 c 0.32352,0.59691 1.0792,2.02787 1.6793,3.1799 0.60011,1.15202 1.21685,2.08548 1.37057,2.07433 0.15369,-0.0111 0.47004,-0.18608 0.70299,-0.38877 0.39031,-0.33958 0.2992,-0.60074 -1.16105,-3.32798 -0.87152,-1.6277 -1.59979,-3.13853 -1.61836,-3.35738 -0.0288,-0.33916 3.17939,-2.84078 3.69976,-2.88494 0.31633,-0.0268 8.94592,16.44902 8.82833,16.8553 -0.11351,0.39213 -3.14654,2.5776 -3.63472,2.61907 -0.14279,0.0121 -1.01092,-1.39559 -1.92917,-3.12824 -1.61273,-3.04309 -1.68958,-3.13903 -2.25806,-2.8194 -0.32367,0.182 -0.57913,0.44178 -0.56759,0.57745 0.0115,0.13561 0.73092,1.57258 1.59867,3.19325 0.86775,1.62066 1.5856,3.07182 1.59519,3.22475 0.0139,0.22142 -2.89125,2.40005 -3.73048,2.79759 -0.10915,0.0517 -2.22427,-3.70726 -4.70025,-8.35327 z"
       id="path608" />
    <path
       style="fill:none;stroke:#ffffff;stroke-width:1;stroke-dasharray:none"
       d="m 80.576851,157.00056 c -1.82094,-0.3807 -2.72454,-1.5517 -5.86082,-7.59526 -1.85746,-3.5793 -1.96,-3.86366 -2.00814,-5.56898 -0.0629,-2.229 0.7165,-3.74278 2.6429,-5.13308 2.16253,-1.5607 4.06468,-1.69856 5.86781,-0.4253 0.88467,0.62471 1.74365,1.76658 1.79178,2.38187 0.0261,0.33295 -3.16588,2.87082 -3.66384,2.91308 -0.13646,0.0116 -0.40849,-0.26406 -0.60442,-0.61254 -0.42134,-0.74941 -1.33562,-0.77113 -1.50214,-0.0357 -0.0718,0.31731 0.75363,2.13139 2.18127,4.79366 1.85133,3.45235 2.40673,4.28945 2.86327,4.31553 0.70322,0.0402 0.91799,-0.59817 0.49674,-1.47483 -0.17365,-0.36136 -0.25623,-0.77452 -0.18348,-0.91811 0.14669,-0.28956 3.4821,-2.39092 3.84376,-2.42159 0.1257,-0.0106 0.40482,0.42761 0.62035,0.97393 1.30781,3.31508 -0.20292,6.99381 -3.45797,8.42043 -1.26721,0.55536 -1.8592,0.63102 -3.02708,0.38684 z"
       id="path604" />
    <path
       style="fill:none;stroke:#ffffff;stroke-width:1;stroke-dasharray:none"
       d="m 70.250001,164.4917 c -0.244,-0.46517 -2.23153,-4.19947 -4.4167,-8.29843 -2.18518,-4.09898 -3.97993,-7.53381 -3.98835,-7.63298 -0.0182,-0.21482 8.49155,-6.17316 8.63398,-6.04531 0.23179,0.20809 1.75291,3.28229 1.77958,3.59655 0.0161,0.18989 -0.92966,1.01355 -2.10171,1.83038 -1.17212,0.81671 -2.12371,1.57119 -2.11478,1.67644 0.009,0.10522 0.29851,0.72102 0.6435,1.36841 l 0.62725,1.17704 1.09019,-0.76979 c 0.59939,-0.4237 1.21257,-0.78016 1.36216,-0.79279 0.28873,-0.0245 1.90894,2.80405 1.96159,3.42454 0.0171,0.20183 -0.47617,0.72513 -1.09622,1.16291 -0.6199,0.43796 -1.11954,0.88819 -1.10995,1.00099 0.01,0.1128 0.30754,0.73476 0.66216,1.38213 l 0.64476,1.17705 1.17805,-0.81848 c 0.6479,-0.45022 1.59727,-1.12973 2.10986,-1.50981 0.51246,-0.38025 1.03728,-0.70027 1.16622,-0.7112 0.28265,-0.024 1.87846,2.87714 1.92798,3.50498 0.0232,0.29524 -1.28081,1.35753 -3.88775,3.16694 -2.15746,1.4976 -4.08152,2.7752 -4.2755,2.83941 -0.19919,0.0658 -0.54582,-0.25145 -0.79635,-0.72903 z"
       id="path602" />
    <path
       style="fill:none;stroke:#ffffff;stroke-width:1;stroke-dasharray:none"
       d="m 63.321431,170.01206 c -0.15946,-0.25095 -1.68155,-3.08641 -3.38237,-6.30108 -1.70081,-3.21467 -3.09015,-5.66332 -3.29899,-6.04518 l -2.87993,1.65719 c -0.28114,0.0239 -2.06948,-3.33411 -1.96601,-3.69158 0.13116,-0.45313 9.34575,-6.82577 9.73411,-6.73193 0.384,0.0928 2.09571,3.24806 1.93458,3.56609 -0.0618,0.12211 -0.71633,0.63375 -1.45438,1.13702 l -1.34208,0.91482 1.21749,2.33821 c 0.66963,1.28602 2.22042,4.21166 3.44622,6.50143 1.2258,2.28977 2.1795,4.26035 2.11936,4.37908 -0.0875,0.17296 -2.96407,2.24062 -3.66527,2.63469 -0.0952,0.0533 -0.30341,-0.1081 -0.46289,-0.35901 z"
       id="path600"
       sodipodi:nodetypes="csccsssccsssccc" />
    <path
       style="fill:none;stroke:#ffffff;stroke-width:0.9;stroke-dasharray:none"
       d="m 113.67265,130.04541 c 0.22672,-0.52636 -0.27722,-1.64512 -2.9618,-6.57523 -1.21088,-2.22378 -1.46224,-2.53126 -2.02987,-2.48309 -0.42701,0.0362 -0.66624,0.22862 -0.70176,0.56448 -0.0297,0.2802 0.97115,2.4357 2.22412,4.79002 1.77879,3.34229 2.38541,4.27147 2.76743,4.23906 0.26911,-0.0228 0.58497,-0.26366 0.70189,-0.53522 z"
       id="path616" />
    <text
       xml:space="preserve"
       transform="matrix(0.21729401,-0.15095579,0.15095579,0.21729401,-40.672739,84.171602)"
       id="text18423"
       style="font-style:normal;font-variant:normal;font-weight:normal;font-stretch:normal;font-size:25.3333px;font-family:'Block Berthold';-inkscape-font-specification:'Block Berthold, Normal';font-variant-ligatures:normal;font-variant-caps:normal;font-variant-numeric:normal;font-variant-east-asian:normal;text-align:center;letter-spacing:12px;white-space:pre;shape-inside:url(#rect18425);display:inline;fill:#ffffff;fill-opacity:1;stroke:none;stroke-width:3.40157;stroke-linecap:square;stroke-dasharray:none;stroke-opacity:1"><tspan
         x="198.20353"
         y="518.31966"
         id="tspan3959">TECH SPECIALIST</tspan></text>
  </g>
</svg>
